<svg xmlns="http://www.w3.org/2000/svg" version="1.1" xmlns:xlink="http://www.w3.org/1999/xlink" xmlns:svgjs="http://svgjs.dev/svgjs" viewBox="0 0 11.710757300823776 8.026374655598493"><g transform="matrix(1,0,0,1,0.8050399052947013,4.9499045745225425)"><g><path d=" M 0.850341796875 0.79248046875 Q 0.850341796875 0.818115234375 0.837158203125 0.8345947265625 Q 0.823974609375 0.85107421875 0.799072265625 0.85107421875 Q 0.7763671875 0.85107421875 0.7613525390625 0.83642578125 Q 0.746337890625 0.82177734375 0.740478515625 0.80126953125 L 0.703125 0.6650390625 L 0.45849609375 0.6650390625 L 0.45849609375 1.138916015625 L 1.105224609375 1.138916015625 L 1.190185546875 0.897216796875 Q 1.200439453125 0.87451171875 1.21875 0.8580322265625 Q 1.237060546875 0.841552734375 1.265625 0.841552734375 Q 1.289794921875 0.841552734375 1.304443359375 0.856201171875 Q 1.319091796875 0.870849609375 1.319091796875 0.895751953125 Q 1.319091796875 0.903076171875 1.3179931640625 0.910400390625 Q 1.31689453125 0.917724609375 1.314697265625 0.92431640625 L 1.2685546875 1.210693359375 Q 1.26123046875 1.237060546875 1.248046875 1.25244140625 Q 1.23486328125 1.267822265625 1.20849609375 1.267822265625 L 0.08056640625 1.267822265625 Q 0.054931640625 1.267822265625 0.0406494140625 1.2491455078125 Q 0.0263671875 1.23046875 0.0263671875 1.206298828125 Q 0.0263671875 1.17919921875 0.038818359375 1.1590576171875 Q 0.05126953125 1.138916015625 0.0791015625 1.138916015625 L 0.287841796875 1.138916015625 L 0.287841796875 0.141357421875 L 0.15380859375 0.141357421875 Q 0.1259765625 0.141357421875 0.1138916015625 0.1212158203125 Q 0.101806640625 0.10107421875 0.101806640625 0.073974609375 Q 0.101806640625 0.0498046875 0.11572265625 0.0311279296875 Q 0.129638671875 0.012451171875 0.1552734375 0.012451171875 L 1.178466796875 0.012451171875 Q 1.204833984375 0.012451171875 1.21728515625 0.0281982421875 Q 1.229736328125 0.0439453125 1.238525390625 0.069580078125 L 1.308837890625 0.3017578125 Q 1.31103515625 0.309814453125 1.3121337890625 0.317138671875 Q 1.313232421875 0.324462890625 1.313232421875 0.330322265625 Q 1.313232421875 0.3544921875 1.2982177734375 0.3695068359375 Q 1.283203125 0.384521484375 1.259765625 0.384521484375 Q 1.232666015625 0.384521484375 1.2132568359375 0.3680419921875 Q 1.19384765625 0.3515625 1.184326171875 0.328857421875 L 1.105224609375 0.141357421875 L 0.45849609375 0.141357421875 L 0.45849609375 0.5595703125 L 0.703125 0.5595703125 L 0.740478515625 0.42333984375 Q 0.746337890625 0.40283203125 0.7613525390625 0.38818359375 Q 0.7763671875 0.37353515625 0.799072265625 0.37353515625 Q 0.823974609375 0.37353515625 0.837158203125 0.3900146484375 Q 0.850341796875 0.406494140625 0.850341796875 0.43212890625 L 0.83935546875 0.609375 L 0.850341796875 0.79248046875 M 1.4956054687500002 0.3603515625 L 1.4948730468750002 0.071044921875 Q 1.4956054687500002 0.04833984375 1.5117187500000002 0.0303955078125 Q 1.5278320312500002 0.012451171875 1.5703125000000002 0.012451171875 L 2.39794921875 0.012451171875 Q 2.423583984375 0.012451171875 2.4378662109375 0.0311279296875 Q 2.4521484375 0.0498046875 2.4521484375 0.073974609375 Q 2.4521484375 0.088623046875 2.4495849609375 0.1014404296875 Q 2.447021484375 0.1142578125 2.4404296875 0.12158203125 L 1.6618652343750002 1.138916015625 L 2.347412109375 1.138916015625 L 2.403076171875 0.8671875 Q 2.410400390625 0.843017578125 2.4305419921875 0.8272705078125 Q 2.45068359375 0.8115234375 2.477783203125 0.8115234375 Q 2.50048828125 0.8115234375 2.5162353515625 0.826171875 Q 2.531982421875 0.8408203125 2.531982421875 0.86572265625 Q 2.531982421875 0.873046875 2.5308837890625 0.88037109375 Q 2.52978515625 0.8876953125 2.527587890625 0.894287109375 L 2.49609375 1.210693359375 Q 2.48876953125 1.237060546875 2.4752197265625 1.25244140625 Q 2.461669921875 1.267822265625 2.43603515625 1.267822265625 L 1.4985351562500002 1.267822265625 Q 1.4750976562500002 1.267822265625 1.4589843750000002 1.2440185546875 Q 1.4428710937500002 1.22021484375 1.4428710937500002 1.193115234375 Q 1.4428710937500002 1.174072265625 1.4512939453125002 1.1531982421875 Q 1.4597167968750002 1.13232421875 1.4758300781250002 1.11181640625 L 2.221435546875 0.141357421875 L 1.6376953125000002 0.141357421875 L 1.6091308593750002 0.35888671875 Q 1.6018066406250002 0.380126953125 1.5867919921875002 0.3973388671875 Q 1.5717773437500002 0.41455078125 1.5490722656250002 0.41455078125 Q 1.5263671875000002 0.41455078125 1.5109863281250002 0.399169921875 Q 1.4956054687500002 0.3837890625 1.4956054687500002 0.3603515625 L 1.4956054687500002 0.3603515625 M 3.633544921875 0.073974609375 Q 3.633544921875 0.10107421875 3.62109375 0.1212158203125 Q 3.608642578125 0.141357421875 3.580810546875 0.141357421875 L 3.41748046875 0.141357421875 L 3.41748046875 1.138916015625 L 3.93310546875 1.138916015625 Q 3.995361328125 1.138916015625 4.0404052734375 1.121337890625 Q 4.08544921875 1.103759765625 4.090576171875 1.0458984375 L 4.11181640625 0.840087890625 Q 4.11474609375 0.81591796875 4.1304931640625 0.804931640625 Q 4.146240234375 0.7939453125 4.171875 0.7939453125 Q 4.198974609375 0.7939453125 4.2191162109375 0.80859375 Q 4.2392578125 0.8232421875 4.2392578125 0.8525390625 L 4.206298828125 1.218017578125 Q 4.2041015625 1.238525390625 4.193115234375 1.253173828125 Q 4.18212890625 1.267822265625 4.16162109375 1.267822265625 L 3.027099609375 1.267822265625 Q 3.00146484375 1.267822265625 2.9871826171875 1.2491455078125 Q 2.972900390625 1.23046875 2.972900390625 1.206298828125 Q 2.972900390625 1.17919921875 2.9853515625 1.1590576171875 Q 2.997802734375 1.138916015625 3.025634765625 1.138916015625 L 3.24609375 1.138916015625 L 3.24609375 0.141357421875 L 3.071044921875 0.141357421875 Q 3.043212890625 0.141357421875 3.03076171875 0.1212158203125 Q 3.018310546875 0.10107421875 3.018310546875 0.073974609375 Q 3.018310546875 0.0498046875 3.0325927734375 0.0311279296875 Q 3.046875 0.012451171875 3.072509765625 0.012451171875 L 3.579345703125 0.012451171875 Q 3.60498046875 0.012451171875 3.6192626953125 0.0311279296875 Q 3.633544921875 0.0498046875 3.633544921875 0.073974609375 L 3.633544921875 0.073974609375 M 4.600341796875 0.22265625 Q 4.55419921875 0.22265625 4.5216064453125 0.1900634765625 Q 4.489013671875 0.157470703125 4.489013671875 0.111328125 Q 4.489013671875 0.065185546875 4.5216064453125 0.0325927734375 Q 4.55419921875 0 4.600341796875 0 Q 4.646484375 0 4.6787109375 0.0325927734375 Q 4.7109375 0.065185546875 4.7109375 0.111328125 Q 4.7109375 0.157470703125 4.6787109375 0.1900634765625 Q 4.646484375 0.22265625 4.600341796875 0.22265625 L 4.600341796875 0.22265625 M 4.374755859375 1.20703125 Q 4.374755859375 1.179931640625 4.3883056640625 1.1605224609375 Q 4.40185546875 1.14111328125 4.430419921875 1.14111328125 L 4.53076171875 1.14111328125 L 4.53076171875 0.5478515625 L 4.426025390625 0.576416015625 Q 4.424560546875 0.5771484375 4.4219970703125 0.5775146484375 Q 4.41943359375 0.577880859375 4.415771484375 0.577880859375 Q 4.393798828125 0.577880859375 4.374755859375 0.5599365234375 Q 4.355712890625 0.5419921875 4.355712890625 0.519287109375 Q 4.355712890625 0.495849609375 4.3663330078125 0.4793701171875 Q 4.376953125 0.462890625 4.3974609375 0.457763671875 L 4.6318359375 0.399169921875 Q 4.634033203125 0.3984375 4.636962890625 0.3980712890625 Q 4.639892578125 0.397705078125 4.6435546875 0.397705078125 Q 4.65966796875 0.397705078125 4.6702880859375 0.4068603515625 Q 4.680908203125 0.416015625 4.680908203125 0.43212890625 L 4.680908203125 1.14111328125 L 4.793701171875 1.14111328125 Q 4.821533203125 1.14111328125 4.833984375 1.1612548828125 Q 4.846435546875 1.181396484375 4.846435546875 1.20849609375 Q 4.846435546875 1.232666015625 4.8321533203125 1.250244140625 Q 4.81787109375 1.267822265625 4.792236328125 1.267822265625 L 4.434814453125 1.267822265625 Q 4.404052734375 1.267822265625 4.389404296875 1.2513427734375 Q 4.374755859375 1.23486328125 4.374755859375 1.20703125 L 4.374755859375 1.20703125 M 4.99951171875 0.63720703125 Q 4.99951171875 0.495849609375 5.1005859375 0.44677734375 Q 5.20166015625 0.397705078125 5.316650390625 0.397705078125 Q 5.391357421875 0.397705078125 5.464599609375 0.4288330078125 Q 5.537841796875 0.4599609375 5.56494140625 0.50830078125 L 5.565673828125 0.446044921875 Q 5.565673828125 0.42333984375 5.581787109375 0.4097900390625 Q 5.597900390625 0.396240234375 5.62060546875 0.396240234375 Q 5.65283203125 0.396240234375 5.6689453125 0.410888671875 Q 5.68505859375 0.425537109375 5.68505859375 0.453369140625 L 5.68212890625 0.6650390625 Q 5.67919921875 0.68994140625 5.6630859375 0.7027587890625 Q 5.64697265625 0.715576171875 5.6220703125 0.715576171875 Q 5.597900390625 0.715576171875 5.58984375 0.700927734375 Q 5.581787109375 0.686279296875 5.574462890625 0.6591796875 Q 5.549560546875 0.582275390625 5.4715576171875 0.541259765625 Q 5.3935546875 0.500244140625 5.315185546875 0.500244140625 Q 5.247802734375 0.500244140625 5.197265625 0.526611328125 Q 5.146728515625 0.552978515625 5.146728515625 0.6064453125 Q 5.146728515625 0.652587890625 5.1767578125 0.67822265625 Q 5.206787109375 0.703857421875 5.274169921875 0.720703125 L 5.461669921875 0.7822265625 Q 5.559814453125 0.815185546875 5.6396484375 0.86572265625 Q 5.719482421875 0.916259765625 5.719482421875 1.0400390625 Q 5.719482421875 1.16162109375 5.6363525390625 1.224609375 Q 5.55322265625 1.28759765625 5.403076171875 1.28759765625 Q 5.32470703125 1.28759765625 5.23095703125 1.2623291015625 Q 5.13720703125 1.237060546875 5.095458984375 1.19091796875 Q 5.095458984375 1.2392578125 5.0782470703125 1.2535400390625 Q 5.06103515625 1.267822265625 5.0361328125 1.267822265625 Q 5.00830078125 1.267822265625 4.9896240234375 1.25537109375 Q 4.970947265625 1.242919921875 4.970947265625 1.213623046875 L 4.970947265625 0.966064453125 Q 4.9716796875 0.943359375 4.988525390625 0.931640625 Q 5.00537109375 0.919921875 5.026611328125 0.919921875 Q 5.058837890625 0.919921875 5.0716552734375 0.9349365234375 Q 5.08447265625 0.949951171875 5.091064453125 0.978515625 Q 5.11376953125 1.078125 5.19580078125 1.1279296875 Q 5.27783203125 1.177734375 5.39501953125 1.177734375 Q 5.466064453125 1.177734375 5.5169677734375 1.150634765625 Q 5.56787109375 1.12353515625 5.56787109375 1.06201171875 Q 5.56787109375 1.00048828125 5.53857421875 0.971923828125 Q 5.50927734375 0.943359375 5.4345703125 0.920654296875 L 5.2353515625 0.8583984375 Q 5.142333984375 0.8291015625 5.0709228515625 0.78076171875 Q 4.99951171875 0.732421875 4.99951171875 0.63720703125 L 4.99951171875 0.63720703125 M 6.214599609375 1.169677734375 Q 6.284912109375 1.169677734375 6.305419921875 1.130126953125 Q 6.325927734375 1.090576171875 6.36767578125 1.090576171875 Q 6.390380859375 1.090576171875 6.4053955078125 1.1070556640625 Q 6.42041015625 1.12353515625 6.42041015625 1.146240234375 Q 6.42041015625 1.21142578125 6.342041015625 1.24951171875 Q 6.263671875 1.28759765625 6.189697265625 1.28759765625 Q 6.10400390625 1.28759765625 6.03955078125 1.2271728515625 Q 5.97509765625 1.166748046875 5.97509765625 1.086181640625 L 5.97509765625 0.567626953125 L 5.865234375 0.567626953125 Q 5.83447265625 0.567626953125 5.81982421875 0.550048828125 Q 5.80517578125 0.532470703125 5.80517578125 0.504638671875 Q 5.80517578125 0.4775390625 5.8187255859375 0.457763671875 Q 5.832275390625 0.43798828125 5.86083984375 0.43798828125 L 5.97509765625 0.43798828125 Q 5.97509765625 0.371337890625 5.98681640625 0.260009765625 Q 5.99853515625 0.148681640625 6.0615234375 0.148681640625 Q 6.079833984375 0.148681640625 6.0933837890625 0.153076171875 Q 6.10693359375 0.157470703125 6.1201171875 0.1669921875 L 6.1201171875 0.181640625 Q 6.1201171875 0.191162109375 6.120849609375 0.2032470703125 Q 6.12158203125 0.21533203125 6.12158203125 0.224853515625 L 6.12158203125 0.43798828125 L 6.3134765625 0.43798828125 Q 6.34130859375 0.43798828125 6.353759765625 0.45849609375 Q 6.3662109375 0.47900390625 6.3662109375 0.506103515625 Q 6.3662109375 0.5302734375 6.3519287109375 0.5489501953125 Q 6.337646484375 0.567626953125 6.31201171875 0.567626953125 L 6.12158203125 0.567626953125 L 6.12158203125 1.0634765625 Q 6.12158203125 1.12060546875 6.14794921875 1.1451416015625 Q 6.17431640625 1.169677734375 6.214599609375 1.169677734375 L 6.214599609375 1.169677734375" fill="#3f170e" fill-rule="nonzero"></path></g><g><path d=" M 0.2025 2.1226801757812495 Q 0.1925 2.1226801757812495 0.1853125 2.1154926757812493 Q 0.178125 2.1083051757812497 0.178125 2.0983051757812494 L 0.178125 1.9420551757812494 L 0.008125 1.6726801757812495 Q 0.001875 1.6633051757812494 0.0034375 1.6545551757812493 Q 0.005 1.6458051757812495 0.01125 1.6401801757812495 Q 0.0175 1.6345551757812493 0.026875 1.6345551757812493 Q 0.034375 1.6345551757812493 0.0390625 1.6376801757812496 Q 0.043750000000000004 1.6408051757812494 0.0475 1.6464301757812494 L 0.21625 1.9183051757812495 L 0.19 1.9183051757812495 L 0.358125 1.6476801757812494 Q 0.3625 1.6408051757812494 0.3678125 1.6376801757812496 Q 0.373125 1.6345551757812493 0.380625 1.6345551757812493 Q 0.389375 1.6345551757812493 0.3953125 1.6404926757812495 Q 0.40125 1.6464301757812494 0.40218750000000003 1.6551801757812494 Q 0.403125 1.6639301757812495 0.3975 1.6726801757812495 L 0.226875 1.9420551757812494 L 0.226875 2.0983051757812494 Q 0.226875 2.1083051757812497 0.2196875 2.1154926757812493 Q 0.2125 2.1226801757812495 0.2025 2.1226801757812495 M 0.5606466674804688 2.1258051757812493 Q 0.5106466674804687 2.1258051757812493 0.4712716674804687 2.1033051757812493 Q 0.43189666748046873 2.0808051757812493 0.4093966674804687 2.0414301757812496 Q 0.38689666748046875 2.0020551757812495 0.38689666748046875 1.9520551757812494 Q 0.38689666748046875 1.9014301757812495 0.4093966674804687 1.8620551757812493 Q 0.43189666748046873 1.8226801757812494 0.4712716674804687 1.8001801757812494 Q 0.5106466674804687 1.7776801757812495 0.5606466674804688 1.7776801757812495 Q 0.6106466674804687 1.7776801757812495 0.6497091674804687 1.8001801757812494 Q 0.6887716674804687 1.8226801757812494 0.7112716674804687 1.8620551757812493 Q 0.7337716674804687 1.9014301757812495 0.7343966674804687 1.9520551757812494 Q 0.7343966674804687 2.0020551757812495 0.7115841674804687 2.0414301757812496 Q 0.6887716674804687 2.0808051757812493 0.6497091674804687 2.1033051757812493 Q 0.6106466674804687 2.1258051757812493 0.5606466674804688 2.1258051757812493 M 0.5606466674804688 2.0820551757812495 Q 0.5968966674804688 2.0820551757812495 0.6256466674804687 2.0651801757812493 Q 0.6543966674804687 2.0483051757812496 0.6706466674804688 2.0189301757812492 Q 0.6868966674804687 1.9895551757812495 0.6868966674804687 1.9520551757812494 Q 0.6868966674804687 1.9145551757812496 0.6706466674804688 1.8848676757812495 Q 0.6543966674804687 1.8551801757812494 0.6256466674804687 1.8383051757812494 Q 0.5968966674804688 1.8214301757812494 0.5606466674804688 1.8214301757812494 Q 0.5243966674804688 1.8214301757812494 0.4956466674804687 1.8383051757812494 Q 0.46689666748046876 1.8551801757812494 0.45033416748046873 1.8848676757812495 Q 0.43377166748046875 1.9145551757812496 0.43377166748046875 1.9520551757812494 Q 0.43377166748046875 1.9895551757812495 0.45033416748046873 2.0189301757812492 Q 0.46689666748046876 2.0483051757812496 0.4956466674804687 2.0651801757812493 Q 0.5243966674804688 2.0820551757812495 0.5606466674804688 2.0820551757812495 M 0.9831478881835938 2.1264301757812496 Q 0.9387728881835937 2.1264301757812496 0.9037728881835937 2.1079926757812495 Q 0.8687728881835937 2.0895551757812494 0.8484603881835937 2.0539301757812494 Q 0.8281478881835938 2.0183051757812493 0.8281478881835938 1.9670551757812493 L 0.8281478881835938 1.8045551757812495 Q 0.8281478881835938 1.7945551757812495 0.8350228881835937 1.7876801757812495 Q 0.8418978881835937 1.7808051757812495 0.8518978881835937 1.7808051757812495 Q 0.8625228881835937 1.7808051757812495 0.8693978881835938 1.7876801757812495 Q 0.8762728881835937 1.7945551757812495 0.8762728881835937 1.8045551757812495 L 0.8762728881835937 1.9670551757812493 Q 0.8762728881835937 2.0058051757812496 0.8909603881835937 2.0308051757812495 Q 0.9056478881835937 2.0558051757812494 0.9309603881835937 2.0683051757812496 Q 0.9562728881835937 2.0808051757812493 0.9881478881835937 2.0808051757812493 Q 1.0187728881835938 2.0808051757812493 1.0434603881835938 2.0689301757812495 Q 1.0681478881835937 2.0570551757812496 1.0825228881835938 2.0364301757812493 Q 1.0968978881835938 2.0158051757812494 1.0968978881835938 1.9895551757812495 L 1.1312728881835938 1.9895551757812495 Q 1.1293978881835938 2.0289301757812495 1.1097103881835937 2.0598676757812493 Q 1.0900228881835936 2.0908051757812496 1.0568978881835938 2.1086176757812494 Q 1.0237728881835937 2.1264301757812496 0.9831478881835938 2.1264301757812496 M 1.1206478881835937 2.1226801757812495 Q 1.1100228881835936 2.1226801757812495 1.1034603881835938 2.1161176757812497 Q 1.0968978881835938 2.1095551757812494 1.0968978881835938 2.0983051757812494 L 1.0968978881835938 1.8045551757812495 Q 1.0968978881835938 1.7939301757812496 1.1034603881835938 1.7873676757812493 Q 1.1100228881835936 1.7808051757812495 1.1206478881835937 1.7808051757812495 Q 1.1312728881835938 1.7808051757812495 1.1381478881835938 1.7873676757812493 Q 1.1450228881835938 1.7939301757812496 1.1450228881835938 1.8045551757812495 L 1.1450228881835938 2.0983051757812494 Q 1.1450228881835938 2.1095551757812494 1.1381478881835938 2.1161176757812497 Q 1.1312728881835938 2.1226801757812495 1.1206478881835937 2.1226801757812495 M 1.2837741088867185 1.9120551757812494 Q 1.2856491088867186 1.8733051757812493 1.3040866088867187 1.8426801757812494 Q 1.3225241088867186 1.8120551757812495 1.3522116088867187 1.7945551757812495 Q 1.3818991088867185 1.7770551757812494 1.4181491088867186 1.7770551757812494 Q 1.4468991088867185 1.7770551757812494 1.4625241088867185 1.7851801757812495 Q 1.4781491088867185 1.7933051757812495 1.4743991088867185 1.8089301757812495 Q 1.4718991088867186 1.8183051757812494 1.4659616088867184 1.8214301757812494 Q 1.4600241088867185 1.8245551757812495 1.4515866088867186 1.8239301757812494 Q 1.4431491088867185 1.8233051757812495 1.4325241088867187 1.8226801757812494 Q 1.3975241088867185 1.8195551757812494 1.3703366088867186 1.8298676757812493 Q 1.3431491088867187 1.8401801757812495 1.3272116088867185 1.8614301757812495 Q 1.3112741088867186 1.8826801757812495 1.3112741088867186 1.9120551757812494 L 1.2837741088867185 1.9120551757812494 M 1.2875241088867186 2.1226801757812495 Q 1.2762741088867187 2.1226801757812495 1.2700241088867186 2.1164301757812494 Q 1.2637741088867185 2.1101801757812493 1.2637741088867185 2.0989301757812493 L 1.2637741088867185 1.8045551757812495 Q 1.2637741088867185 1.7933051757812495 1.2700241088867186 1.7870551757812494 Q 1.2762741088867187 1.7808051757812495 1.2875241088867186 1.7808051757812495 Q 1.2987741088867186 1.7808051757812495 1.3050241088867185 1.7870551757812494 Q 1.3112741088867186 1.7933051757812495 1.3112741088867186 1.8045551757812495 L 1.3112741088867186 2.0989301757812493 Q 1.3112741088867186 2.1101801757812493 1.3050241088867185 2.1164301757812494 Q 1.2987741088867186 2.1226801757812495 1.2875241088867186 2.1226801757812495 M 1.9712976074218749 2.1289301757812495 Q 1.920672607421875 2.1289301757812495 1.876610107421875 2.1095551757812494 Q 1.832547607421875 2.0901801757812493 1.799110107421875 2.0554926757812493 Q 1.765672607421875 2.0208051757812493 1.746922607421875 1.9754926757812494 Q 1.728172607421875 1.9301801757812496 1.728172607421875 1.8783051757812494 Q 1.728172607421875 1.8270551757812494 1.746610107421875 1.7817426757812496 Q 1.765047607421875 1.7364301757812495 1.798485107421875 1.7020551757812494 Q 1.831922607421875 1.6676801757812494 1.875985107421875 1.6479926757812495 Q 1.920047607421875 1.6283051757812494 1.9712976074218749 1.6283051757812494 Q 2.0162976074218752 1.6283051757812494 2.053172607421875 1.6414301757812495 Q 2.090047607421875 1.6545551757812493 2.124422607421875 1.6833051757812494 Q 2.130047607421875 1.6876801757812494 2.130985107421875 1.6936176757812493 Q 2.131922607421875 1.6995551757812495 2.129422607421875 1.7048676757812493 Q 2.126922607421875 1.7101801757812494 2.121922607421875 1.7126801757812493 Q 2.120672607421875 1.7176801757812494 2.115672607421875 1.7201801757812494 Q 2.110672607421875 1.7226801757812495 2.104110107421875 1.7220551757812494 Q 2.097547607421875 1.7214301757812493 2.091297607421875 1.7164301757812495 Q 2.066922607421875 1.6951801757812495 2.038172607421875 1.6848676757812495 Q 2.009422607421875 1.6745551757812493 1.9712976074218749 1.6745551757812493 Q 1.930672607421875 1.6745551757812493 1.895360107421875 1.6908051757812494 Q 1.860047607421875 1.7070551757812495 1.833172607421875 1.7351801757812495 Q 1.806297607421875 1.7633051757812495 1.790985107421875 1.8001801757812494 Q 1.775672607421875 1.8370551757812494 1.775672607421875 1.8783051757812494 Q 1.775672607421875 1.9208051757812494 1.790985107421875 1.9576801757812494 Q 1.806297607421875 1.9945551757812494 1.833172607421875 2.0226801757812494 Q 1.860047607421875 2.0508051757812495 1.895360107421875 2.0667426757812493 Q 1.930672607421875 2.0826801757812494 1.9712976074218749 2.0826801757812494 Q 2.005672607421875 2.0826801757812494 2.036297607421875 2.0714301757812494 Q 2.066922607421875 2.0601801757812495 2.0944226074218752 2.0389301757812492 Q 2.101922607421875 2.0326801757812496 2.110360107421875 2.0339301757812493 Q 2.118797607421875 2.0351801757812495 2.125047607421875 2.0414301757812496 Q 2.131297607421875 2.0476801757812493 2.131297607421875 2.0576801757812495 Q 2.131297607421875 2.0626801757812494 2.130047607421875 2.0667426757812493 Q 2.128797607421875 2.0708051757812496 2.124422607421875 2.0751801757812496 Q 2.092547607421875 2.1045551757812495 2.053172607421875 2.1167426757812495 Q 2.013797607421875 2.1289301757812495 1.9712976074218749 2.1289301757812495 M 2.131297607421875 2.0576801757812495 L 2.083797607421875 2.0476801757812493 L 2.083797607421875 1.9220551757812494 L 1.986297607421875 1.9220551757812494 Q 1.975672607421875 1.9220551757812494 1.968797607421875 1.9158051757812495 Q 1.961922607421875 1.9095551757812494 1.961922607421875 1.9001801757812495 Q 1.961922607421875 1.8908051757812494 1.968797607421875 1.8848676757812495 Q 1.975672607421875 1.8789301757812495 1.986297607421875 1.8789301757812495 L 2.106922607421875 1.8789301757812495 Q 2.117547607421875 1.8789301757812495 2.124422607421875 1.8854926757812493 Q 2.131297607421875 1.8920551757812494 2.131297607421875 1.9026801757812495 L 2.131297607421875 2.0576801757812495 M 2.2519259643554688 1.9120551757812494 Q 2.253800964355469 1.8733051757812493 2.272238464355469 1.8426801757812494 Q 2.290675964355469 1.8120551757812495 2.3203634643554687 1.7945551757812495 Q 2.350050964355469 1.7770551757812494 2.3863009643554687 1.7770551757812494 Q 2.4150509643554687 1.7770551757812494 2.4306759643554687 1.7851801757812495 Q 2.4463009643554687 1.7933051757812495 2.442550964355469 1.8089301757812495 Q 2.4400509643554686 1.8183051757812494 2.4341134643554687 1.8214301757812494 Q 2.428175964355469 1.8245551757812495 2.419738464355469 1.8239301757812494 Q 2.411300964355469 1.8233051757812495 2.400675964355469 1.8226801757812494 Q 2.365675964355469 1.8195551757812494 2.3384884643554686 1.8298676757812493 Q 2.311300964355469 1.8401801757812495 2.295363464355469 1.8614301757812495 Q 2.279425964355469 1.8826801757812495 2.279425964355469 1.9120551757812494 L 2.2519259643554688 1.9120551757812494 M 2.255675964355469 2.1226801757812495 Q 2.244425964355469 2.1226801757812495 2.238175964355469 2.1164301757812494 Q 2.2319259643554688 2.1101801757812493 2.2319259643554688 2.0989301757812493 L 2.2319259643554688 1.8045551757812495 Q 2.2319259643554688 1.7933051757812495 2.238175964355469 1.7870551757812494 Q 2.244425964355469 1.7808051757812495 2.255675964355469 1.7808051757812495 Q 2.266925964355469 1.7808051757812495 2.273175964355469 1.7870551757812494 Q 2.279425964355469 1.7933051757812495 2.279425964355469 1.8045551757812495 L 2.279425964355469 2.0989301757812493 Q 2.279425964355469 2.1101801757812493 2.273175964355469 2.1164301757812494 Q 2.266925964355469 2.1226801757812495 2.255675964355469 2.1226801757812495 M 2.655069580078125 2.1258051757812493 Q 2.6050695800781254 2.1258051757812493 2.5656945800781252 2.1033051757812493 Q 2.526319580078125 2.0808051757812493 2.503819580078125 2.0414301757812496 Q 2.481319580078125 2.0020551757812495 2.481319580078125 1.9520551757812494 Q 2.481319580078125 1.9014301757812495 2.503819580078125 1.8620551757812493 Q 2.526319580078125 1.8226801757812494 2.5656945800781252 1.8001801757812494 Q 2.6050695800781254 1.7776801757812495 2.655069580078125 1.7776801757812495 Q 2.705069580078125 1.7776801757812495 2.744132080078125 1.8001801757812494 Q 2.783194580078125 1.8226801757812494 2.805694580078125 1.8620551757812493 Q 2.828194580078125 1.9014301757812495 2.8288195800781253 1.9520551757812494 Q 2.8288195800781253 2.0020551757812495 2.806007080078125 2.0414301757812496 Q 2.783194580078125 2.0808051757812493 2.744132080078125 2.1033051757812493 Q 2.705069580078125 2.1258051757812493 2.655069580078125 2.1258051757812493 M 2.655069580078125 2.0820551757812495 Q 2.691319580078125 2.0820551757812495 2.720069580078125 2.0651801757812493 Q 2.748819580078125 2.0483051757812496 2.765069580078125 2.0189301757812492 Q 2.781319580078125 1.9895551757812495 2.781319580078125 1.9520551757812494 Q 2.781319580078125 1.9145551757812496 2.765069580078125 1.8848676757812495 Q 2.748819580078125 1.8551801757812494 2.720069580078125 1.8383051757812494 Q 2.691319580078125 1.8214301757812494 2.655069580078125 1.8214301757812494 Q 2.6188195800781253 1.8214301757812494 2.5900695800781253 1.8383051757812494 Q 2.561319580078125 1.8551801757812494 2.544757080078125 1.8848676757812495 Q 2.528194580078125 1.9145551757812496 2.528194580078125 1.9520551757812494 Q 2.528194580078125 1.9895551757812495 2.544757080078125 2.0189301757812492 Q 2.561319580078125 2.0483051757812496 2.5900695800781253 2.0651801757812493 Q 2.6188195800781253 2.0820551757812495 2.655069580078125 2.0820551757812495 M 3.08132080078125 2.1258051757812493 Q 3.03194580078125 2.1258051757812493 2.9935083007812504 2.1029926757812496 Q 2.9550708007812503 2.0801801757812495 2.9328833007812505 2.0408051757812493 Q 2.9106958007812502 2.0014301757812496 2.9106958007812502 1.9520551757812494 Q 2.9106958007812502 1.9020551757812494 2.9319458007812504 1.8626801757812494 Q 2.95319580078125 1.8233051757812495 2.9900708007812504 1.8004926757812494 Q 3.02694580078125 1.7776801757812495 3.0750708007812504 1.7776801757812495 Q 3.1131958007812504 1.7776801757812495 3.1453833007812504 1.7926801757812494 Q 3.1775708007812504 1.8076801757812495 3.2019458007812505 1.8376801757812493 Q 3.2088208007812504 1.8451801757812494 3.2069458007812504 1.8536176757812495 Q 3.2050708007812503 1.8620551757812493 3.1963208007812502 1.8683051757812494 Q 3.1894458007812503 1.8733051757812493 3.1810083007812504 1.8717426757812494 Q 3.17257080078125 1.8701801757812495 3.1663208007812504 1.8626801757812494 Q 3.13007080078125 1.8214301757812494 3.0750708007812504 1.8214301757812494 Q 3.0400708007812502 1.8214301757812494 3.0135083007812504 1.8383051757812494 Q 2.98694580078125 1.8551801757812494 2.97225830078125 1.8845551757812495 Q 2.9575708007812502 1.9139301757812495 2.9575708007812502 1.9520551757812494 Q 2.9575708007812502 1.9895551757812495 2.9731958007812502 2.0189301757812492 Q 2.9888208007812502 2.0483051757812496 3.0169458007812504 2.0651801757812493 Q 3.04507080078125 2.0820551757812495 3.08132080078125 2.0820551757812495 Q 3.10569580078125 2.0820551757812495 3.1260083007812502 2.0754926757812493 Q 3.1463208007812504 2.0689301757812495 3.1619458007812504 2.0551801757812496 Q 3.1694458007812503 2.0489301757812495 3.1775708007812504 2.0483051757812496 Q 3.18569580078125 2.0476801757812493 3.19257080078125 2.0533051757812495 Q 3.2000708007812504 2.0601801757812495 3.2010083007812504 2.0689301757812495 Q 3.2019458007812505 2.0776801757812495 3.1950708007812505 2.0839301757812496 Q 3.1494458007812502 2.1258051757812493 3.08132080078125 2.1258051757812493 M 3.4619274902343755 2.1258051757812493 Q 3.4113024902343754 2.1258051757812493 3.3722399902343754 2.1036176757812495 Q 3.3331774902343754 2.0814301757812497 3.3109899902343756 2.0420551757812495 Q 3.2888024902343753 2.0026801757812493 3.2888024902343753 1.9520551757812494 Q 3.2888024902343753 1.9008051757812494 3.3097399902343754 1.8617426757812494 Q 3.3306774902343754 1.8226801757812494 3.367552490234375 1.8001801757812494 Q 3.4044274902343754 1.7776801757812495 3.452552490234375 1.7776801757812495 Q 3.5000524902343755 1.7776801757812495 3.5353649902343753 1.7992426757812494 Q 3.570677490234375 1.8208051757812496 3.5900524902343753 1.8589301757812495 Q 3.6094274902343755 1.8970551757812495 3.6094274902343755 1.9458051757812496 Q 3.6094274902343755 1.9558051757812493 3.6031774902343754 1.9617426757812495 Q 3.5969274902343753 1.9676801757812494 3.5869274902343755 1.9676801757812494 L 3.3213024902343755 1.9676801757812494 L 3.3213024902343755 1.9276801757812494 L 3.5919274902343754 1.9276801757812494 L 3.5650524902343754 1.9470551757812495 Q 3.5656774902343753 1.9108051757812494 3.5519274902343754 1.8820551757812494 Q 3.5381774902343754 1.8533051757812493 3.5128649902343754 1.8370551757812494 Q 3.4875524902343753 1.8208051757812496 3.452552490234375 1.8208051757812496 Q 3.416927490234375 1.8208051757812496 3.390052490234375 1.8376801757812493 Q 3.363177490234375 1.8545551757812495 3.348489990234375 1.8842426757812494 Q 3.3338024902343752 1.9139301757812495 3.3338024902343752 1.9520551757812494 Q 3.3338024902343752 1.9901801757812494 3.3503649902343753 2.0195551757812495 Q 3.3669274902343753 2.0489301757812495 3.3956774902343754 2.0658051757812497 Q 3.4244274902343754 2.0826801757812494 3.4619274902343755 2.0826801757812494 Q 3.4844274902343755 2.0826801757812494 3.5072399902343756 2.0748676757812494 Q 3.5300524902343753 2.0670551757812494 3.543802490234375 2.0551801757812496 Q 3.550677490234375 2.0495551757812493 3.559427490234375 2.0492426757812496 Q 3.5681774902343752 2.0489301757812495 3.5744274902343753 2.0539301757812494 Q 3.5825524902343755 2.0614301757812497 3.582864990234375 2.0701801757812492 Q 3.5831774902343754 2.0789301757812493 3.5756774902343755 2.0851801757812494 Q 3.555052490234375 2.1026801757812494 3.5231774902343753 2.1142426757812496 Q 3.4913024902343754 2.1258051757812493 3.4619274902343755 2.1258051757812493 M 3.7169360351562504 1.9120551757812494 Q 3.7188110351562504 1.8733051757812493 3.7372485351562506 1.8426801757812494 Q 3.7556860351562507 1.8120551757812495 3.7853735351562503 1.7945551757812495 Q 3.8150610351562504 1.7770551757812494 3.8513110351562503 1.7770551757812494 Q 3.8800610351562503 1.7770551757812494 3.8956860351562503 1.7851801757812495 Q 3.9113110351562503 1.7933051757812495 3.9075610351562506 1.8089301757812495 Q 3.9050610351562502 1.8183051757812494 3.8991235351562503 1.8214301757812494 Q 3.8931860351562504 1.8245551757812495 3.8847485351562505 1.8239301757812494 Q 3.8763110351562506 1.8233051757812495 3.8656860351562505 1.8226801757812494 Q 3.8306860351562504 1.8195551757812494 3.8034985351562502 1.8298676757812493 Q 3.7763110351562506 1.8401801757812495 3.7603735351562504 1.8614301757812495 Q 3.7444360351562507 1.8826801757812495 3.7444360351562507 1.9120551757812494 L 3.7169360351562504 1.9120551757812494 M 3.7206860351562505 2.1226801757812495 Q 3.7094360351562505 2.1226801757812495 3.7031860351562504 2.1164301757812494 Q 3.6969360351562504 2.1101801757812493 3.6969360351562504 2.0989301757812493 L 3.6969360351562504 1.8045551757812495 Q 3.6969360351562504 1.7933051757812495 3.7031860351562504 1.7870551757812494 Q 3.7094360351562505 1.7808051757812495 3.7206860351562505 1.7808051757812495 Q 3.7319360351562505 1.7808051757812495 3.7381860351562506 1.7870551757812494 Q 3.7444360351562507 1.7933051757812495 3.7444360351562507 1.8045551757812495 L 3.7444360351562507 2.0989301757812493 Q 3.7444360351562507 2.1101801757812493 3.7381860351562506 2.1164301757812494 Q 3.7319360351562505 2.1226801757812495 3.7206860351562505 2.1226801757812495 M 4.048190917968751 2.2714301757812496 Q 4.043190917968751 2.2714301757812496 4.03694091796875 2.2689301757812492 Q 4.01569091796875 2.2595551757812493 4.0250659179687505 2.2389301757812494 L 4.226940917968751 1.7939301757812496 Q 4.23631591796875 1.7739301757812496 4.25694091796875 1.7826801757812494 Q 4.27819091796875 1.7914301757812494 4.268815917968751 1.8120551757812495 L 4.06631591796875 2.2570551757812494 Q 4.060065917968751 2.2714301757812496 4.048190917968751 2.2714301757812496 M 4.117565917968751 2.1120551757812493 Q 4.10819091796875 2.1164301757812494 4.100065917968751 2.1136176757812493 Q 4.091940917968751 2.1108051757812496 4.08694091796875 2.1014301757812492 L 3.9475659179687503 1.8126801757812494 Q 3.9431909179687503 1.8033051757812495 3.9463159179687506 1.7951801757812493 Q 3.9494409179687504 1.7870551757812494 3.9588159179687503 1.7826801757812494 Q 3.9681909179687507 1.7783051757812496 3.9763159179687504 1.7811176757812495 Q 3.9844409179687506 1.7839301757812493 3.9888159179687506 1.7933051757812495 L 4.12569091796875 2.0820551757812495 Q 4.13069091796875 2.0914301757812495 4.12881591796875 2.0995551757812496 Q 4.12694091796875 2.1076801757812493 4.117565917968751 2.1120551757812493 M 4.558193054199219 2.1226801757812495 Q 4.548193054199219 2.1226801757812495 4.541005554199218 2.1158051757812495 Q 4.533818054199219 2.1089301757812495 4.533818054199219 2.0983051757812494 L 4.533818054199219 1.6589301757812493 Q 4.533818054199219 1.6489301757812496 4.541005554199218 1.6417426757812494 Q 4.548193054199219 1.6345551757812493 4.558193054199219 1.6345551757812493 Q 4.568193054199218 1.6345551757812493 4.575380554199219 1.6417426757812494 Q 4.582568054199219 1.6489301757812496 4.582568054199219 1.6589301757812493 L 4.582568054199219 2.0764301757812493 L 4.826943054199218 2.0764301757812493 Q 4.836943054199218 2.0764301757812493 4.844130554199219 2.0829926757812496 Q 4.8513180541992185 2.0895551757812494 4.8513180541992185 2.0995551757812496 Q 4.8513180541992185 2.1095551757812494 4.844130554199219 2.1161176757812497 Q 4.836943054199218 2.1226801757812495 4.826943054199218 2.1226801757812495 L 4.558193054199219 2.1226801757812495 M 4.963815307617187 2.1226801757812495 Q 4.952565307617187 2.1226801757812495 4.946002807617187 2.1161176757812497 Q 4.939440307617187 2.1095551757812494 4.939440307617187 2.0983051757812494 L 4.939440307617187 1.8051801757812496 Q 4.939440307617187 1.7939301757812496 4.946002807617187 1.7873676757812493 Q 4.952565307617187 1.7808051757812495 4.963815307617187 1.7808051757812495 Q 4.974440307617187 1.7808051757812495 4.981002807617187 1.7873676757812493 Q 4.987565307617187 1.7939301757812496 4.987565307617187 1.8051801757812496 L 4.987565307617187 2.0983051757812494 Q 4.987565307617187 2.1095551757812494 4.981002807617187 2.1161176757812497 Q 4.974440307617187 2.1226801757812495 4.963815307617187 2.1226801757812495 M 4.963190307617187 1.7158051757812496 Q 4.949440307617187 1.7158051757812496 4.939440307617187 1.7058051757812493 Q 4.929440307617187 1.6958051757812496 4.929440307617187 1.6814301757812493 Q 4.929440307617187 1.6658051757812493 4.939752807617187 1.6567426757812496 Q 4.950065307617187 1.6476801757812494 4.963815307617187 1.6476801757812494 Q 4.976940307617187 1.6476801757812494 4.987252807617187 1.6567426757812496 Q 4.997565307617187 1.6658051757812493 4.997565307617187 1.6814301757812493 Q 4.997565307617187 1.6958051757812496 4.987565307617187 1.7058051757812493 Q 4.977565307617187 1.7158051757812496 4.963190307617187 1.7158051757812496 M 5.2356912231445305 2.1258051757812493 Q 5.19881622314453 2.1258051757812493 5.16256622314453 2.1133051757812495 Q 5.1263162231445305 2.1008051757812494 5.1038162231445305 2.0758051757812495 Q 5.096941223144531 2.0683051757812496 5.09819122314453 2.0589301757812493 Q 5.09944122314453 2.0495551757812493 5.107566223144531 2.0426801757812494 Q 5.116316223144531 2.0364301757812493 5.12569122314453 2.0376801757812495 Q 5.1350662231445305 2.0389301757812492 5.14131622314453 2.0458051757812497 Q 5.156316223144531 2.0633051757812493 5.1810037231445305 2.0726801757812496 Q 5.20569122314453 2.0820551757812495 5.2356912231445305 2.0820551757812495 Q 5.28194122314453 2.0820551757812495 5.30256622314453 2.0661176757812494 Q 5.32319122314453 2.0501801757812497 5.32381622314453 2.0276801757812493 Q 5.32381622314453 2.0051801757812493 5.30256622314453 1.9904926757812493 Q 5.281316223144531 1.9758051757812494 5.232566223144531 1.9676801757812494 Q 5.16944122314453 1.9576801757812494 5.14006622314453 1.9326801757812495 Q 5.1106912231445305 1.9076801757812494 5.1106912231445305 1.8733051757812493 Q 5.1106912231445305 1.8414301757812495 5.12756622314453 1.8201801757812495 Q 5.14444122314453 1.7989301757812495 5.17256622314453 1.7883051757812494 Q 5.20069122314453 1.7776801757812495 5.234441223144531 1.7776801757812495 Q 5.27631622314453 1.7776801757812495 5.306628723144531 1.7920551757812495 Q 5.33694122314453 1.8064301757812493 5.355691223144531 1.8308051757812493 Q 5.36194122314453 1.8389301757812495 5.3606912231445305 1.8476801757812495 Q 5.359441223144531 1.8564301757812496 5.350691223144531 1.8620551757812493 Q 5.34319122314453 1.8664301757812494 5.33350372314453 1.8648676757812495 Q 5.32381622314453 1.8633051757812495 5.31694122314453 1.8558051757812495 Q 5.30131622314453 1.8376801757812493 5.28069122314453 1.8292426757812494 Q 5.2600662231445305 1.8208051757812496 5.23319122314453 1.8208051757812496 Q 5.19881622314453 1.8208051757812496 5.17819122314453 1.8348676757812494 Q 5.1575662231445305 1.8489301757812495 5.1575662231445305 1.8701801757812495 Q 5.1575662231445305 1.8845551757812495 5.1653787231445305 1.8951801757812494 Q 5.1731912231445305 1.9058051757812495 5.19225372314453 1.9139301757812495 Q 5.2113162231445305 1.9220551757812494 5.24569122314453 1.9276801757812494 Q 5.29256622314453 1.9351801757812495 5.31975372314453 1.9498676757812494 Q 5.346941223144531 1.9645551757812494 5.358503723144531 1.9842426757812495 Q 5.37006622314453 2.0039301757812495 5.37006622314453 2.0270551757812494 Q 5.37006622314453 2.0564301757812493 5.3528787231445305 2.0786176757812496 Q 5.33569122314453 2.1008051757812494 5.30537872314453 2.1133051757812495 Q 5.27506622314453 2.1258051757812493 5.2356912231445305 2.1258051757812493 M 5.593192138671874 2.1226801757812495 Q 5.560067138671874 2.1226801757812495 5.534129638671874 2.1070551757812495 Q 5.508192138671874 2.0914301757812495 5.493192138671874 2.0642426757812493 Q 5.478192138671874 2.0370551757812496 5.478192138671874 2.0020551757812495 L 5.478192138671874 1.6964301757812494 Q 5.478192138671874 1.6858051757812493 5.484754638671874 1.6789301757812494 Q 5.4913171386718735 1.6720551757812494 5.501942138671874 1.6720551757812494 Q 5.512567138671874 1.6720551757812494 5.519442138671874 1.6789301757812494 Q 5.526317138671874 1.6858051757812493 5.526317138671874 1.6964301757812494 L 5.526317138671874 2.0020551757812495 Q 5.526317138671874 2.0339301757812493 5.5450671386718735 2.0542426757812495 Q 5.563817138671873 2.0745551757812493 5.593192138671874 2.0745551757812493 L 5.610067138671874 2.0745551757812493 Q 5.620067138671874 2.0745551757812493 5.626317138671874 2.0814301757812497 Q 5.632567138671874 2.0883051757812496 5.632567138671874 2.0989301757812493 Q 5.632567138671874 2.1095551757812494 5.625067138671874 2.1161176757812497 Q 5.617567138671874 2.1226801757812495 5.606317138671874 2.1226801757812495 L 5.593192138671874 2.1226801757812495 M 5.437567138671874 1.8351801757812494 Q 5.428192138671874 1.8351801757812494 5.421942138671874 1.8292426757812494 Q 5.415692138671874 1.8233051757812495 5.415692138671874 1.8145551757812495 Q 5.415692138671874 1.8051801757812496 5.421942138671874 1.7992426757812494 Q 5.428192138671874 1.7933051757812495 5.437567138671874 1.7933051757812495 L 5.596942138671873 1.7933051757812495 Q 5.606317138671874 1.7933051757812495 5.612567138671873 1.7992426757812494 Q 5.618817138671874 1.8051801757812496 5.618817138671874 1.8145551757812495 Q 5.618817138671874 1.8233051757812495 5.612567138671873 1.8292426757812494 Q 5.606317138671874 1.8351801757812494 5.596942138671873 1.8351801757812494 L 5.437567138671874 1.8351801757812494 M 5.728178100585936 2.1326801757812492 Q 5.713178100585936 2.1326801757812492 5.702553100585936 2.1220551757812496 Q 5.691928100585936 2.1114301757812495 5.691928100585936 2.0964301757812493 Q 5.691928100585936 2.0808051757812493 5.702865600585936 2.0701801757812492 Q 5.7138031005859355 2.0595551757812496 5.728178100585936 2.0595551757812496 Q 5.7431781005859355 2.0595551757812496 5.753803100585936 2.0704926757812494 Q 5.764428100585936 2.0814301757812497 5.764428100585936 2.0964301757812493 Q 5.764428100585936 2.1108051757812496 5.754115600585936 2.1217426757812494 Q 5.743803100585936 2.1326801757812492 5.728178100585936 2.1326801757812492 M 6.2038238525390605 2.1289301757812495 Q 6.1638238525390605 2.1289301757812495 6.12976135253906 2.1173676757812494 Q 6.09569885253906 2.1058051757812493 6.07069885253906 2.0845551757812495 Q 6.0456988525390605 2.0633051757812493 6.03257385253906 2.0351801757812495 Q 6.02757385253906 2.0251801757812493 6.03226135253906 2.0167426757812494 Q 6.03694885253906 2.0083051757812496 6.04819885253906 2.0051801757812493 Q 6.05694885253906 2.0026801757812493 6.06538635253906 2.0070551757812494 Q 6.07382385253906 2.0114301757812494 6.07819885253906 2.0201801757812494 Q 6.087573852539061 2.0383051757812494 6.10569885253906 2.0526801757812496 Q 6.1238238525390605 2.0670551757812494 6.14882385253906 2.0748676757812494 Q 6.17382385253906 2.0826801757812494 6.2038238525390605 2.0826801757812494 Q 6.236948852539061 2.0826801757812494 6.26257385253906 2.0717426757812496 Q 6.28819885253906 2.0608051757812493 6.30288635253906 2.0398676757812493 Q 6.31757385253906 2.0189301757812492 6.31757385253906 1.9889301757812494 Q 6.31757385253906 1.9508051757812495 6.28944885253906 1.9233051757812494 Q 6.261323852539061 1.8958051757812495 6.20132385253906 1.8883051757812495 Q 6.12819885253906 1.8795551757812494 6.08694885253906 1.8429926757812494 Q 6.0456988525390605 1.8064301757812493 6.0456988525390605 1.7533051757812494 Q 6.0456988525390605 1.7151801757812495 6.06601135253906 1.6870551757812495 Q 6.08632385253906 1.6589301757812493 6.12194885253906 1.6436176757812495 Q 6.15757385253906 1.6283051757812494 6.2038238525390605 1.6283051757812494 Q 6.23819885253906 1.6283051757812494 6.2663238525390605 1.6392426757812495 Q 6.29444885253906 1.6501801757812493 6.31538635253906 1.6679926757812495 Q 6.33632385253906 1.6858051757812493 6.34944885253906 1.7070551757812495 Q 6.35569885253906 1.7170551757812493 6.35351135253906 1.7264301757812495 Q 6.3513238525390605 1.7358051757812494 6.3425738525390605 1.7408051757812495 Q 6.33319885253906 1.7451801757812495 6.32351135253906 1.7420551757812495 Q 6.31382385253906 1.7389301757812494 6.30882385253906 1.7301801757812494 Q 6.29944885253906 1.7158051757812496 6.28538635253906 1.7029926757812495 Q 6.27132385253906 1.6901801757812493 6.25132385253906 1.6826801757812495 Q 6.23132385253906 1.6751801757812494 6.20319885253906 1.6745551757812493 Q 6.15382385253906 1.6745551757812493 6.1238238525390605 1.6954926757812494 Q 6.09382385253906 1.7164301757812495 6.09382385253906 1.7564301757812495 Q 6.09382385253906 1.7776801757812495 6.10507385253906 1.7954926757812495 Q 6.11632385253906 1.8133051757812495 6.142261352539061 1.8261176757812494 Q 6.16819885253906 1.8389301757812495 6.21194885253906 1.8451801757812494 Q 6.29007385253906 1.8564301757812496 6.3278863525390605 1.8929926757812494 Q 6.36569885253906 1.9295551757812495 6.36569885253906 1.9883051757812495 Q 6.36569885253906 2.0220551757812495 6.35351135253906 2.0483051757812496 Q 6.34132385253906 2.0745551757812493 6.3191363525390605 2.0923676757812495 Q 6.29694885253906 2.1101801757812493 6.267261352539061 2.1195551757812496 Q 6.23757385253906 2.1289301757812495 6.2038238525390605 2.1289301757812495 M 6.601315917968748 2.1226801757812495 Q 6.568190917968748 2.1226801757812495 6.542253417968747 2.1070551757812495 Q 6.516315917968748 2.0914301757812495 6.501315917968747 2.0642426757812493 Q 6.4863159179687475 2.0370551757812496 6.4863159179687475 2.0020551757812495 L 6.4863159179687475 1.6964301757812494 Q 6.4863159179687475 1.6858051757812493 6.492878417968748 1.6789301757812494 Q 6.499440917968747 1.6720551757812494 6.510065917968747 1.6720551757812494 Q 6.520690917968747 1.6720551757812494 6.527565917968747 1.6789301757812494 Q 6.534440917968747 1.6858051757812493 6.534440917968747 1.6964301757812494 L 6.534440917968747 2.0020551757812495 Q 6.534440917968747 2.0339301757812493 6.553190917968747 2.0542426757812495 Q 6.571940917968747 2.0745551757812493 6.601315917968748 2.0745551757812493 L 6.6181909179687475 2.0745551757812493 Q 6.628190917968747 2.0745551757812493 6.634440917968748 2.0814301757812497 Q 6.640690917968747 2.0883051757812496 6.640690917968747 2.0989301757812493 Q 6.640690917968747 2.1095551757812494 6.633190917968747 2.1161176757812497 Q 6.625690917968748 2.1226801757812495 6.614440917968747 2.1226801757812495 L 6.601315917968748 2.1226801757812495 M 6.445690917968747 1.8351801757812494 Q 6.436315917968748 1.8351801757812494 6.430065917968747 1.8292426757812494 Q 6.4238159179687475 1.8233051757812495 6.4238159179687475 1.8145551757812495 Q 6.4238159179687475 1.8051801757812496 6.430065917968747 1.7992426757812494 Q 6.436315917968748 1.7933051757812495 6.445690917968747 1.7933051757812495 L 6.605065917968747 1.7933051757812495 Q 6.614440917968747 1.7933051757812495 6.620690917968747 1.7992426757812494 Q 6.6269409179687475 1.8051801757812496 6.6269409179687475 1.8145551757812495 Q 6.6269409179687475 1.8233051757812495 6.620690917968747 1.8292426757812494 Q 6.614440917968747 1.8351801757812494 6.605065917968747 1.8351801757812494 L 6.445690917968747 1.8351801757812494 M 6.745051879882809 1.9120551757812494 Q 6.7469268798828095 1.8733051757812493 6.76536437988281 1.8426801757812494 Q 6.78380187988281 1.8120551757812495 6.813489379882809 1.7945551757812495 Q 6.84317687988281 1.7770551757812494 6.87942687988281 1.7770551757812494 Q 6.908176879882809 1.7770551757812494 6.923801879882809 1.7851801757812495 Q 6.939426879882809 1.7933051757812495 6.935676879882809 1.8089301757812495 Q 6.93317687988281 1.8183051757812494 6.92723937988281 1.8214301757812494 Q 6.92130187988281 1.8245551757812495 6.9128643798828096 1.8239301757812494 Q 6.904426879882809 1.8233051757812495 6.893801879882809 1.8226801757812494 Q 6.85880187988281 1.8195551757812494 6.83161437988281 1.8298676757812493 Q 6.80442687988281 1.8401801757812495 6.78848937988281 1.8614301757812495 Q 6.772551879882809 1.8826801757812495 6.772551879882809 1.9120551757812494 L 6.745051879882809 1.9120551757812494 M 6.7488018798828096 2.1226801757812495 Q 6.737551879882809 2.1226801757812495 6.7313018798828095 2.1164301757812494 Q 6.72505187988281 2.1101801757812493 6.72505187988281 2.0989301757812493 L 6.72505187988281 1.8045551757812495 Q 6.72505187988281 1.7933051757812495 6.7313018798828095 1.7870551757812494 Q 6.737551879882809 1.7808051757812495 6.7488018798828096 1.7808051757812495 Q 6.760051879882809 1.7808051757812495 6.76630187988281 1.7870551757812494 Q 6.772551879882809 1.7933051757812495 6.772551879882809 1.8045551757812495 L 6.772551879882809 2.0989301757812493 Q 6.772551879882809 2.1101801757812493 6.76630187988281 2.1164301757812494 Q 6.760051879882809 2.1226801757812495 6.7488018798828096 2.1226801757812495 M 7.147570495605465 2.1258051757812493 Q 7.096945495605465 2.1258051757812493 7.057882995605465 2.1036176757812495 Q 7.018820495605465 2.0814301757812497 6.996632995605466 2.0420551757812495 Q 6.974445495605465 2.0026801757812493 6.974445495605465 1.9520551757812494 Q 6.974445495605465 1.9008051757812494 6.995382995605465 1.8617426757812494 Q 7.0163204956054654 1.8226801757812494 7.053195495605466 1.8001801757812494 Q 7.090070495605465 1.7776801757812495 7.138195495605466 1.7776801757812495 Q 7.185695495605465 1.7776801757812495 7.221007995605465 1.7992426757812494 Q 7.256320495605466 1.8208051757812496 7.275695495605465 1.8589301757812495 Q 7.295070495605465 1.8970551757812495 7.295070495605465 1.9458051757812496 Q 7.295070495605465 1.9558051757812493 7.288820495605465 1.9617426757812495 Q 7.282570495605466 1.9676801757812494 7.272570495605465 1.9676801757812494 L 7.006945495605465 1.9676801757812494 L 7.006945495605465 1.9276801757812494 L 7.277570495605465 1.9276801757812494 L 7.2506954956054654 1.9470551757812495 Q 7.251320495605466 1.9108051757812494 7.237570495605466 1.8820551757812494 Q 7.223820495605465 1.8533051757812493 7.198507995605466 1.8370551757812494 Q 7.173195495605466 1.8208051757812496 7.138195495605466 1.8208051757812496 Q 7.102570495605465 1.8208051757812496 7.075695495605466 1.8376801757812493 Q 7.048820495605465 1.8545551757812495 7.034132995605465 1.8842426757812494 Q 7.019445495605465 1.9139301757812495 7.019445495605465 1.9520551757812494 Q 7.019445495605465 1.9901801757812494 7.036007995605465 2.0195551757812495 Q 7.052570495605465 2.0489301757812495 7.081320495605465 2.0658051757812497 Q 7.1100704956054654 2.0826801757812494 7.147570495605465 2.0826801757812494 Q 7.170070495605465 2.0826801757812494 7.192882995605466 2.0748676757812494 Q 7.215695495605465 2.0670551757812494 7.229445495605465 2.0551801757812496 Q 7.236320495605465 2.0495551757812493 7.245070495605465 2.0492426757812496 Q 7.253820495605465 2.0489301757812495 7.260070495605465 2.0539301757812494 Q 7.2681954956054655 2.0614301757812497 7.268507995605465 2.0701801757812492 Q 7.268820495605466 2.0789301757812493 7.2613204956054656 2.0851801757812494 Q 7.240695495605466 2.1026801757812494 7.208820495605465 2.1142426757812496 Q 7.176945495605465 2.1258051757812493 7.147570495605465 2.1258051757812493 M 7.52069183349609 2.1258051757812493 Q 7.47256683349609 2.1258051757812493 7.4344418334960904 2.1029926757812496 Q 7.39631683349609 2.0801801757812495 7.37412933349609 2.0408051757812493 Q 7.35194183349609 2.0014301757812496 7.35194183349609 1.9520551757812494 Q 7.35194183349609 1.9020551757812494 7.37475433349609 1.8626801757812494 Q 7.39756683349609 1.8233051757812495 7.43694183349609 1.8004926757812494 Q 7.47631683349609 1.7776801757812495 7.52569183349609 1.7776801757812495 Q 7.57506683349609 1.7776801757812495 7.61412933349609 1.8004926757812494 Q 7.65319183349609 1.8233051757812495 7.67600433349609 1.8626801757812494 Q 7.69881683349609 1.9020551757812494 7.69944183349609 1.9520551757812494 L 7.68006683349609 1.9670551757812493 Q 7.68006683349609 2.0120551757812493 7.65912933349609 2.0479926757812494 Q 7.63819183349609 2.0839301757812496 7.60225433349609 2.1048676757812497 Q 7.56631683349609 2.1258051757812493 7.52069183349609 2.1258051757812493 M 7.52569183349609 2.0820551757812495 Q 7.56194183349609 2.0820551757812495 7.59037933349609 2.0651801757812493 Q 7.61881683349609 2.0483051757812496 7.63537933349609 2.0186176757812495 Q 7.65194183349609 1.9889301757812494 7.65194183349609 1.9520551757812494 Q 7.65194183349609 1.9145551757812496 7.63537933349609 1.8851801757812494 Q 7.61881683349609 1.8558051757812495 7.59037933349609 1.8386176757812493 Q 7.56194183349609 1.8214301757812494 7.52569183349609 1.8214301757812494 Q 7.49006683349609 1.8214301757812494 7.46131683349609 1.8386176757812493 Q 7.43256683349609 1.8558051757812495 7.41569183349609 1.8851801757812494 Q 7.39881683349609 1.9145551757812496 7.39881683349609 1.9520551757812494 Q 7.39881683349609 1.9889301757812494 7.41569183349609 2.0186176757812495 Q 7.43256683349609 2.0483051757812496 7.46131683349609 2.0651801757812493 Q 7.49006683349609 2.0820551757812495 7.52569183349609 2.0820551757812495 M 7.67506683349609 2.1226801757812495 Q 7.66444183349609 2.1226801757812495 7.65756683349609 2.1161176757812497 Q 7.65069183349609 2.1095551757812494 7.65069183349609 2.0989301757812493 L 7.65069183349609 1.9920551757812495 L 7.66256683349609 1.9426801757812495 L 7.69944183349609 1.9520551757812494 L 7.69944183349609 2.0989301757812493 Q 7.69944183349609 2.1095551757812494 7.69256683349609 2.1161176757812497 Q 7.68569183349609 2.1226801757812495 7.67506683349609 2.1226801757812495 M 8.261318054199215 2.1226801757812495 Q 8.250693054199214 2.1226801757812495 8.243818054199215 2.1161176757812497 Q 8.236943054199214 2.1095551757812494 8.236943054199214 2.0989301757812493 L 8.236943054199214 1.9189301757812494 Q 8.236943054199214 1.8745551757812495 8.213818054199214 1.8486176757812496 Q 8.190693054199215 1.8226801757812494 8.154443054199215 1.8226801757812494 Q 8.115693054199214 1.8226801757812494 8.091005554199215 1.8486176757812496 Q 8.066318054199215 1.8745551757812495 8.066943054199214 1.9176801757812494 L 8.023818054199214 1.9176801757812494 Q 8.024443054199214 1.8758051757812495 8.041943054199214 1.8439301757812494 Q 8.059443054199214 1.8120551757812495 8.090068054199214 1.7945551757812495 Q 8.120693054199215 1.7770551757812494 8.159443054199215 1.7770551757812494 Q 8.196318054199214 1.7770551757812494 8.224755554199215 1.7945551757812495 Q 8.253193054199215 1.8120551757812495 8.269130554199215 1.8439301757812494 Q 8.285068054199215 1.8758051757812495 8.285068054199215 1.9189301757812494 L 8.285068054199215 2.0989301757812493 Q 8.285068054199215 2.1095551757812494 8.278505554199215 2.1161176757812497 Q 8.271943054199214 2.1226801757812495 8.261318054199215 2.1226801757812495 M 7.823818054199215 2.1226801757812495 Q 7.812568054199215 2.1226801757812495 7.806005554199214 2.1161176757812497 Q 7.799443054199215 2.1095551757812494 7.799443054199215 2.0989301757812493 L 7.799443054199215 1.8051801757812496 Q 7.799443054199215 1.7945551757812495 7.806005554199214 1.7876801757812495 Q 7.812568054199215 1.7808051757812495 7.823818054199215 1.7808051757812495 Q 7.834443054199214 1.7808051757812495 7.8410055541992145 1.7876801757812495 Q 7.847568054199215 1.7945551757812495 7.847568054199215 1.8051801757812496 L 7.847568054199215 2.0989301757812493 Q 7.847568054199215 2.1095551757812494 7.8410055541992145 2.1161176757812497 Q 7.834443054199214 2.1226801757812495 7.823818054199215 2.1226801757812495 M 8.043193054199214 2.1226801757812495 Q 8.032568054199215 2.1226801757812495 8.025693054199214 2.1161176757812497 Q 8.018818054199215 2.1095551757812494 8.018818054199215 2.0989301757812493 L 8.018818054199215 1.9189301757812494 Q 8.018818054199215 1.8745551757812495 7.995693054199215 1.8486176757812496 Q 7.972568054199215 1.8226801757812494 7.936318054199215 1.8226801757812494 Q 7.897568054199215 1.8226801757812494 7.872568054199214 1.8479926757812495 Q 7.847568054199215 1.8733051757812493 7.847568054199215 1.9139301757812495 L 7.813193054199215 1.9139301757812495 Q 7.814443054199215 1.8739301757812494 7.831005554199215 1.8429926757812494 Q 7.847568054199215 1.8120551757812495 7.876318054199214 1.7945551757812495 Q 7.905068054199215 1.7770551757812494 7.941318054199215 1.7770551757812494 Q 7.978193054199215 1.7770551757812494 8.006630554199214 1.7945551757812495 Q 8.035068054199215 1.8120551757812495 8.051005554199214 1.8439301757812494 Q 8.066943054199214 1.8758051757812495 8.066943054199214 1.9189301757812494 L 8.066943054199214 2.0989301757812493 Q 8.066943054199214 2.1095551757812494 8.060380554199215 2.1161176757812497 Q 8.053818054199215 2.1226801757812495 8.043193054199214 2.1226801757812495 M 8.471331481933591 2.1226801757812495 Q 8.44633148193359 2.1226801757812495 8.42664398193359 2.1089301757812495 Q 8.406956481933591 2.0951801757812496 8.39601898193359 2.0708051757812496 Q 8.38508148193359 2.0464301757812495 8.38508148193359 2.0145551757812497 L 8.38508148193359 1.6583051757812495 Q 8.38508148193359 1.6476801757812494 8.39164398193359 1.6411176757812496 Q 8.39820648193359 1.6345551757812493 8.408831481933591 1.6345551757812493 Q 8.41945648193359 1.6345551757812493 8.42601898193359 1.6411176757812496 Q 8.43258148193359 1.6476801757812494 8.43258148193359 1.6583051757812495 L 8.43258148193359 2.0145551757812497 Q 8.43258148193359 2.0414301757812496 8.44351898193359 2.0583051757812494 Q 8.45445648193359 2.0751801757812496 8.471331481933591 2.0751801757812496 L 8.486956481933591 2.0751801757812496 Q 8.49633148193359 2.0751801757812496 8.50195648193359 2.0817426757812494 Q 8.50758148193359 2.0883051757812496 8.50758148193359 2.0989301757812493 Q 8.50758148193359 2.1095551757812494 8.49976898193359 2.1161176757812497 Q 8.49195648193359 2.1226801757812495 8.47945648193359 2.1226801757812495 L 8.471331481933591 2.1226801757812495 M 8.614445495605464 2.1226801757812495 Q 8.603195495605465 2.1226801757812495 8.596632995605464 2.1161176757812497 Q 8.590070495605465 2.1095551757812494 8.590070495605465 2.0983051757812494 L 8.590070495605465 1.8051801757812496 Q 8.590070495605465 1.7939301757812496 8.596632995605464 1.7873676757812493 Q 8.603195495605465 1.7808051757812495 8.614445495605464 1.7808051757812495 Q 8.625070495605465 1.7808051757812495 8.631632995605464 1.7873676757812493 Q 8.638195495605466 1.7939301757812496 8.638195495605466 1.8051801757812496 L 8.638195495605466 2.0983051757812494 Q 8.638195495605466 2.1095551757812494 8.631632995605464 2.1161176757812497 Q 8.625070495605465 2.1226801757812495 8.614445495605464 2.1226801757812495 M 8.613820495605465 1.7158051757812496 Q 8.600070495605465 1.7158051757812496 8.590070495605465 1.7058051757812493 Q 8.580070495605465 1.6958051757812496 8.580070495605465 1.6814301757812493 Q 8.580070495605465 1.6658051757812493 8.590382995605465 1.6567426757812496 Q 8.600695495605464 1.6476801757812494 8.614445495605464 1.6476801757812494 Q 8.627570495605465 1.6476801757812494 8.637882995605464 1.6567426757812496 Q 8.648195495605465 1.6658051757812493 8.648195495605465 1.6814301757812493 Q 8.648195495605465 1.6958051757812496 8.638195495605466 1.7058051757812493 Q 8.628195495605464 1.7158051757812496 8.613820495605465 1.7158051757812496 M 9.060071411132808 2.1226801757812495 Q 9.049446411132807 2.1226801757812495 9.042571411132808 2.1158051757812495 Q 9.035696411132808 2.1089301757812495 9.035696411132808 2.0989301757812493 L 9.035696411132808 1.9364301757812494 Q 9.035696411132808 1.8976801757812494 9.021008911132808 1.8726801757812495 Q 9.006321411132808 1.8476801757812495 8.981008911132808 1.8351801757812494 Q 8.955696411132807 1.8226801757812494 8.923821411132808 1.8226801757812494 Q 8.893196411132807 1.8226801757812494 8.868508911132809 1.8345551757812495 Q 8.843821411132808 1.8464301757812493 8.829446411132809 1.8670551757812495 Q 8.815071411132807 1.8876801757812494 8.815071411132807 1.9139301757812495 L 8.780696411132809 1.9139301757812495 Q 8.781946411132807 1.8745551757812495 8.801946411132809 1.8436176757812495 Q 8.821946411132808 1.8126801757812494 8.855071411132808 1.7948676757812494 Q 8.888196411132808 1.7770551757812494 8.928821411132809 1.7770551757812494 Q 8.973196411132808 1.7770551757812494 9.008196411132808 1.7954926757812495 Q 9.043196411132808 1.8139301757812494 9.063508911132809 1.8495551757812494 Q 9.083821411132808 1.8851801757812494 9.083821411132808 1.9364301757812494 L 9.083821411132808 2.0989301757812493 Q 9.083821411132808 2.1089301757812495 9.076946411132809 2.1158051757812495 Q 9.070071411132808 2.1226801757812495 9.060071411132808 2.1226801757812495 M 8.791321411132808 2.1226801757812495 Q 8.780071411132809 2.1226801757812495 8.773508911132808 2.1161176757812497 Q 8.766946411132809 2.1095551757812494 8.766946411132809 2.0989301757812493 L 8.766946411132809 1.8051801757812496 Q 8.766946411132809 1.7939301757812496 8.773508911132808 1.7873676757812493 Q 8.780071411132809 1.7808051757812495 8.791321411132808 1.7808051757812495 Q 8.801946411132809 1.7808051757812495 8.808508911132808 1.7873676757812493 Q 8.815071411132807 1.7939301757812496 8.815071411132807 1.8051801757812496 L 8.815071411132807 2.0989301757812493 Q 8.815071411132807 2.1095551757812494 8.808508911132808 2.1161176757812497 Q 8.801946411132809 2.1226801757812495 8.791321411132808 2.1226801757812495 M 9.351322631835933 2.1258051757812493 Q 9.300697631835932 2.1258051757812493 9.261635131835932 2.1036176757812495 Q 9.222572631835932 2.0814301757812497 9.200385131835933 2.0420551757812495 Q 9.178197631835934 2.0026801757812493 9.178197631835934 1.9520551757812494 Q 9.178197631835934 1.9008051757812494 9.199135131835932 1.8617426757812494 Q 9.220072631835933 1.8226801757812494 9.256947631835933 1.8001801757812494 Q 9.293822631835933 1.7776801757812495 9.341947631835932 1.7776801757812495 Q 9.389447631835933 1.7776801757812495 9.424760131835933 1.7992426757812494 Q 9.460072631835933 1.8208051757812496 9.479447631835933 1.8589301757812495 Q 9.498822631835933 1.8970551757812495 9.498822631835933 1.9458051757812496 Q 9.498822631835933 1.9558051757812493 9.492572631835932 1.9617426757812495 Q 9.486322631835932 1.9676801757812494 9.476322631835933 1.9676801757812494 L 9.210697631835933 1.9676801757812494 L 9.210697631835933 1.9276801757812494 L 9.481322631835933 1.9276801757812494 L 9.454447631835933 1.9470551757812495 Q 9.455072631835932 1.9108051757812494 9.441322631835932 1.8820551757812494 Q 9.427572631835933 1.8533051757812493 9.402260131835932 1.8370551757812494 Q 9.376947631835932 1.8208051757812496 9.341947631835932 1.8208051757812496 Q 9.306322631835933 1.8208051757812496 9.279447631835932 1.8376801757812493 Q 9.252572631835934 1.8545551757812495 9.237885131835933 1.8842426757812494 Q 9.223197631835934 1.9139301757812495 9.223197631835934 1.9520551757812494 Q 9.223197631835934 1.9901801757812494 9.239760131835933 2.0195551757812495 Q 9.256322631835934 2.0489301757812495 9.285072631835932 2.0658051757812497 Q 9.313822631835933 2.0826801757812494 9.351322631835933 2.0826801757812494 Q 9.373822631835933 2.0826801757812494 9.396635131835932 2.0748676757812494 Q 9.419447631835933 2.0670551757812494 9.433197631835933 2.0551801757812496 Q 9.440072631835934 2.0495551757812493 9.448822631835933 2.0492426757812496 Q 9.457572631835934 2.0489301757812495 9.463822631835933 2.0539301757812494 Q 9.471947631835933 2.0614301757812497 9.472260131835933 2.0701801757812492 Q 9.472572631835932 2.0789301757812493 9.465072631835932 2.0851801757812494 Q 9.444447631835933 2.1026801757812494 9.412572631835934 2.1142426757812496 Q 9.380697631835933 2.1258051757812493 9.351322631835933 2.1258051757812493 M 9.729443969726557 2.1258051757812493 Q 9.680068969726557 2.1258051757812493 9.640693969726557 2.1029926757812496 Q 9.601318969726558 2.0801801757812495 9.578506469726557 2.0408051757812493 Q 9.555693969726558 2.0014301757812496 9.555693969726558 1.9514301757812493 Q 9.555693969726558 1.9020551757812494 9.577881469726558 1.8626801757812494 Q 9.600068969726557 1.8233051757812495 9.638193969726558 1.8004926757812494 Q 9.676318969726557 1.7776801757812495 9.724443969726558 1.7776801757812495 Q 9.766318969726557 1.7776801757812495 9.800068969726558 1.7954926757812495 Q 9.833818969726558 1.8133051757812495 9.854443969726557 1.8426801757812494 L 9.854443969726557 1.6589301757812493 Q 9.854443969726557 1.6476801757812494 9.861318969726558 1.6411176757812496 Q 9.868193969726558 1.6345551757812493 9.878818969726558 1.6345551757812493 Q 9.889443969726557 1.6345551757812493 9.896318969726558 1.6411176757812496 Q 9.903193969726557 1.6476801757812494 9.903193969726557 1.6589301757812493 L 9.903193969726557 1.9539301757812495 Q 9.901943969726558 2.0026801757812493 9.879131469726557 2.0417426757812493 Q 9.856318969726557 2.0808051757812493 9.817256469726557 2.1033051757812493 Q 9.778193969726557 2.1258051757812493 9.729443969726557 2.1258051757812493 M 9.729443969726557 2.0820551757812495 Q 9.765693969726557 2.0820551757812495 9.794131469726558 2.0648676757812496 Q 9.822568969726557 2.0476801757812493 9.839131469726558 2.0183051757812493 Q 9.855693969726557 1.9889301757812494 9.855693969726557 1.9514301757812493 Q 9.855693969726557 1.9145551757812496 9.839131469726558 1.8848676757812495 Q 9.822568969726557 1.8551801757812494 9.794131469726558 1.8383051757812494 Q 9.765693969726557 1.8214301757812494 9.729443969726557 1.8214301757812494 Q 9.693818969726557 1.8214301757812494 9.665068969726558 1.8383051757812494 Q 9.636318969726558 1.8551801757812494 9.619443969726557 1.8848676757812495 Q 9.602568969726558 1.9145551757812496 9.602568969726558 1.9514301757812493 Q 9.602568969726558 1.9889301757812494 9.619443969726557 2.0183051757812493 Q 9.636318969726558 2.0476801757812493 9.665068969726558 2.0648676757812496 Q 9.693818969726557 2.0820551757812495 9.729443969726557 2.0820551757812495 M 10.033175354003902 2.1326801757812492 Q 10.018175354003901 2.1326801757812492 10.0075503540039 2.1220551757812496 Q 9.996925354003901 2.1114301757812495 9.996925354003901 2.0964301757812493 Q 9.996925354003901 2.0808051757812493 10.007862854003902 2.0701801757812492 Q 10.0188003540039 2.0595551757812496 10.033175354003902 2.0595551757812496 Q 10.0481753540039 2.0595551757812496 10.058800354003901 2.0704926757812494 Q 10.0694253540039 2.0814301757812497 10.0694253540039 2.0964301757812493 Q 10.0694253540039 2.1108051757812496 10.059112854003901 2.1217426757812494 Q 10.048800354003902 2.1326801757812492 10.033175354003902 2.1326801757812492" fill="#d56a34" fill-rule="nonzero"></path></g><g clip-path="url(&quot;#SvgjsClipPath1001&quot;)"><g clip-path="url(&quot;#SvgjsClipPath1000&quot;)"><path d=" M 4.2214774564620665 -3.7574967329170645 C 4.184062051416105 -3.7597229854245935 4.146359387982075 -3.7584303226782856 4.108872168339097 -3.7584303226782856 C 3.136215266338141 -3.7584303226782856 2.16358230253619 -3.7585978900713277 1.1909732769332446 -3.7589330248574058 C 1.150833196591512 -3.7525572352310173 1.1097483412359823 -3.755931710760822 1.0711865291085554 -3.768771624648756 C 1.0635023672277146 -3.7930449584405674 1.0559618345409085 -3.8142302645606483 1.049642150003395 -3.8358464582628233 C 0.9942772890245257 -4.022291798206418 0.8211036079413294 -4.148717405788376 0.6266541735720872 -4.144649225436774 C 0.4989678200755054 -4.142279343735206 0.37120965198190664 -4.1429256751083665 0.24359511308234227 -4.144649225436774 C 0.12474195501887629 -4.146444590362203 0.020969862329022315 -4.1231048463316196 0.0000718145970171569 -3.9416293596691503 C -0.007109645104702835 -3.7209431030353013 0.12560373018308274 -3.6923608934224523 0.2477603597093399 -3.6928635956015667 C 0.3454282116527318 -3.693294483183667 0.44273699061103783 -3.693366297780687 0.5403330279574127 -3.6928635956015667 C 0.5657553953015014 -3.6928635956015667 0.5906032458694526 -3.688411090586502 0.6193290846763326 -3.685682135899846 C 0.6265105443780525 -3.6600443247647068 0.6325429705274973 -3.639002647838666 0.6376418069157187 -3.6176737125245575 C 0.7646100144421281 -3.077053426179073 0.8914824691725146 -2.536457078032604 1.0182591711068785 -1.995884668085131 C 1.0541664696154784 -1.8425605034534098 1.0885656615867172 -1.6886618220455483 1.1280636899461771 -1.5362712471750544 C 1.1649543108974532 -1.37393525224191 1.2950829710068372 -1.2492309739694738 1.4588417238074003 -1.219281615941135 C 1.506891629973158 -1.2107772144629299 1.5557415281649078 -1.2076698984536978 1.6044817265582825 -1.210017532925919 C 2.2843265783211084 -1.2094908925477963 2.964003862690894 -1.2094908925477896 3.6435135796676406 -1.2100175329259129 C 3.6697977221759364 -1.2100175329259129 3.6962254938782664 -1.2090839431646851 3.722509636386561 -1.2107356788960866 C 3.840363877735596 -1.215974079836239 3.934276400837507 -1.3111387699128438 3.937953427438161 -1.4290520538283733 C 3.9401228582161707 -1.55145787285231 3.844780474853728 -1.653506003844579 3.7225096363865617 -1.6596487248505989 C 3.6889004049825114 -1.662090421149188 3.6549321005933755 -1.6605105000148064 3.6211792399952913 -1.6605105000148064 C 2.9752787544225954 -1.6605105000148064 2.3293782688498985 -1.6606780674078423 1.6834777832772019 -1.6610132021939203 C 1.6427237064018845 -1.65456679206204 1.6010015842429435 -1.658519154137481 1.562182928915151 -1.672503537716672 C 1.5345969179397605 -1.7489210302232618 1.5188552564056494 -1.8291066322839447 1.5155034408539714 -1.9102816684406116 C 1.5605311931837553 -1.910999814410792 1.6016809572746111 -1.913010623127274 1.6421125753952945 -1.913010623127274 L 3.681647130683774 -1.913010623127274 C 3.7116656322369637 -1.913010623127274 3.7417559483871705 -1.9112152582018456 3.771702635343343 -1.9125079209481601 C 3.9270088687934677 -1.9100859180695053 4.066744228993965 -2.006473033402853 4.119644357891676 -2.152512304179642 C 4.128190294936724 -2.1733385373146232 4.135802642220546 -2.194308399643651 4.143558618698404 -2.2154218911667054 C 4.259611007478199 -2.5285814105597115 4.375663396257995 -2.8416691153556917 4.49171578503779 -3.1546850055546583 C 4.509956692680159 -3.203949819108461 4.530352038233044 -3.25256830128911 4.5447867722335005 -3.3029821483951807 C 4.574486106527526 -3.4073166293174095 4.555174214131563 -3.519493659200525 4.4922951641669355 -3.607890262316068 C 4.429416114202309 -3.696286865431605 4.329781094000879 -3.751327740885867 4.2214774564620665 -3.7574967329170517 Z M 1.5751095563782473 -2.2750998212880247 C 1.5742938312737438 -2.2597277637488626 1.5726637462941744 -2.244409759308499 1.5702261637810775 -2.229210293794032 C 1.5274698648242906 -2.2091358091162494 1.4786592678858452 -2.206155793724226 1.4337784294483977 -2.220879800540037 C 1.3779784875660332 -2.4236842225166075 1.3349615439527303 -2.646309473269932 1.2875639099213785 -2.85011929960475 C 1.2401662758900263 -3.053929125939569 1.184797221589765 -3.27669800588692 1.1467354851706493 -3.4921417969385233 L 1.5616802267360308 -3.4921417969385233 C 1.570145448012898 -3.4649785567360794 1.5745497818807905 -3.436713381144333 1.5747504833931611 -3.4082623476224323 C 1.5755404439603504 -3.0363345496703382 1.575396814766316 -2.6470276192400997 1.5751095563782473 -2.2750998212880247 Z M 2.043412543527408 -2.2299284397642056 C 1.932173846243562 -2.206522378045464 1.8173368761528073 -2.2059848432918523 1.7058839375465682 -2.2283485186298115 C 1.702437657028961 -2.241893505641934 1.7001552237774091 -2.255708233217117 1.6990615508299343 -2.2696419119147193 C 1.6990615508299343 -2.6599542467031925 1.6990615508299343 -3.0504102106857123 1.6990615508299343 -3.4533619145492183 C 1.8123972599524658 -3.4639675707552757 1.9264445877963194 -3.464616386147559 2.039893628273569 -3.4553009086686868 C 2.0448955996960123 -3.436834914354264 2.0483072842231564 -3.4179745456654755 2.0500913010500086 -3.39892645001019 C 2.050665817826146 -3.023192478416198 2.050665817826146 -2.6475303214192265 2.050091301050008 -2.271939979019268 C 2.048948088566184 -2.257785295491556 2.046715218753121 -2.2437398240868047 2.043412543527408 -2.2299284397642056 Z M 2.5436730263492238 -2.28019865767625 C 2.5426193641936026 -2.2628754674446903 2.5403637455941444 -2.2456463806956375 2.536922454229606 -2.2286357770178915 C 2.419416899410753 -2.2071926419036014 2.299100519617681 -2.2060995191314077 2.1812247552034156 -2.2254041201521213 C 2.177306132364726 -2.2416607626789795 2.1747123056262656 -2.2582084165937832 2.173468778725557 -2.274884377496978 C 2.1729421383474308 -2.6496129447327217 2.1729421383474308 -3.024341511968479 2.1734687787255575 -3.39907007920423 C 2.174284331134694 -3.413304865937597 2.1761082078647056 -3.4274639089732126 2.178926688098865 -3.441440691444379 C 2.294048125631161 -3.467390321555757 2.413007470953409 -3.471579717009368 2.52966917993087 -3.453792802131338 C 2.53652194041056 -3.4341530488888816 2.541100099515836 -3.413792288657517 2.5433139533641373 -3.393109467651804 C 2.5442236049263554 -3.0223546414509994 2.5443432959213843 -2.6514801242551704 2.5436730263492238 -2.2804859160643103 Z M 3.0535566651713433 -2.3709004937089744 C 3.0569619955330682 -2.323088338349166 3.0548898555200705 -2.275043603629199 3.047380609827864 -2.2277021872566767 C 2.92553360694619 -2.206520239474575 2.8009641311452023 -2.2063016539253084 2.6790435417266463 -2.2270558558835165 C 2.6631725157858446 -2.319912129826757 2.6634597741739134 -3.3537550684863646 2.680623462861024 -3.4528592123701043 C 2.798223490580222 -3.4629446654513236 2.9163885510338745 -3.4647205010470876 3.0342385385737143 -3.4581734925493635 C 3.0543435462048927 -3.421261290304767 3.0609224995078796 -3.3784853931533045 3.0528385192011718 -3.337237711172408 C 3.0537960471614003 -3.015221058147284 3.053939676355435 -2.6932044051221657 3.0532694067832744 -2.3711877520970353 Z M 3.5624348996352224 -2.255997138481452 C 3.561179114491437 -2.2460895998504116 3.559064596295855 -2.236309953195841 3.556115215097709 -2.2267685974954556 C 3.436734927164721 -2.2076321700966037 3.315152774365952 -2.206591144096939 3.1954623088773295 -2.2236805698237 C 3.1930226611003367 -2.225844655839529 3.1908089991680324 -2.228250810113777 3.1888553659517482 -2.23086202952544 C 3.186745727050862 -2.2339858737895453 3.185461050707146 -2.237592849677669 3.1851210069068543 -2.2413469606899374 C 3.183828344160544 -2.627613739846451 3.1827511252052862 -3.0138805190029645 3.1818893500410796 -3.400147298159478 C 3.1827755663262316 -3.414616900095119 3.184622882038223 -3.429011567980778 3.187419074011404 -3.443236056369795 C 3.307025112813147 -3.466537773829479 3.429657459801651 -3.4699347917516 3.5503700473363327 -3.4532900999522047 C 3.556533416361402 -3.437425500407305 3.560683157010249 -3.420850664211031 3.562722158023291 -3.403953471801395 C 3.5630572928093716 -3.0215168044858007 3.5628657872173255 -2.6389843843741776 3.5621476412471536 -2.2563562114665325 Z M 4.253363137537704 -3.3763048519497736 C 4.2474743405822935 -3.3547604728446183 4.239000218134263 -3.333646981321551 4.231172427059389 -3.312533489798496 C 4.1097578817023095 -2.985872826166256 3.9882475835492075 -2.659164286136018 3.866641532600082 -2.3324078697077493 C 3.862763544361153 -2.321779309349205 3.8594600728983615 -2.310863490602594 3.8555820846594324 -2.300522188632117 C 3.8201774883299526 -2.2106821277636 3.8110570345087686 -2.206157808151515 3.6962254938782664 -2.225116861764061 C 3.681862574474826 -2.364365365380408 3.685166045937617 -3.360577455203011 3.700821628087367 -3.4531464707581843 C 3.7170984194489796 -3.4568491246759216 3.733644071002423 -3.4592505254819477 3.750301885432217 -3.4603279304599113 C 3.8853133278245533 -3.4610460764300726 4.0203965848139065 -3.4609024472360455 4.155408027206243 -3.460758818042005 C 4.170409431770269 -3.461233129807458 4.185424104349437 -3.4604403550952845 4.200292150341992 -3.45838893634043 C 4.219029170703538 -3.45613129622493 4.235783528820332 -3.445636037738618 4.245991105245693 -3.4297622148077527 C 4.256198681671053 -3.413888391876887 4.258796133613079 -3.394289611047219 4.253075879149635 -3.3763048519497674 Z" fill="url(#gradient-f738292d-f190-438d-9e7a-b1ccbfed9248_0)" transform="matrix(1,0,0,1,0,0)" fill-rule="evenodd"></path></g><g clip-path="url(&quot;#SvgjsClipPath1000&quot;)"><path d=" M 1.7848081796684714 -1.1051682212808132 C 1.6708527024932696 -1.1067134922929243 1.5610667618806569 -1.062349293192407 1.4801772928692611 -0.9820677109721734 C 1.3992878238578652 -0.9017861287519526 1.3540967422829246 -0.7923379626452878 1.3547823727294777 -0.678374071207597 C 1.3538318896175556 -0.5644123530054617 1.3987373769387434 -0.4548532734087978 1.479397534282462 -0.37434168634819986 C 1.5600576916261808 -0.2938300992875953 1.6696993739243209 -0.2491266741788274 1.7836591461161941 -0.25028725838806576 C 2.01744320291542 -0.24929299391011694 2.207855130129405 -0.4378409731446258 2.209160633443106 -0.6716234990879766 C 2.2119932386674757 -0.7858559956894409 2.1684963399290407 -0.8963764703591961 2.08856728163748 -0.9780369416582624 C 2.008638223345919 -1.0596974129573158 1.8990751446073808 -1.105552481362274 1.7848081796684694 -1.1051682212808132 Z" fill="url(#gradient-f738292d-f190-438d-9e7a-b1ccbfed9248_1)" transform="matrix(1,0,0,1,0,0)" fill-rule="evenodd"></path></g><g clip-path="url(&quot;#SvgjsClipPath1000&quot;)"><path d=" M 3.2650506533869974 -1.1044500753106457 C 3.15086764364943 -1.106607293259866 3.0407684041200045 -1.061979661754409 2.960313350471891 -0.9809278410192261 C 2.8798582968237767 -0.8998760202840366 2.836045505064964 -0.7894499938362687 2.8390464638809667 -0.6752860435358667 C 2.8385255064056203 -0.5613715824664496 2.883942597425949 -0.45205571461524885 2.965031908998234 -0.3720475938639298 C 3.0461212205705186 -0.2920394731126046 3.1560368389571782 -0.24809373434890825 3.2699340459841677 -0.25014362919403865 C 3.382255707645105 -0.25017940278835926 3.4899234616717947 -0.29501658090044014 3.569070034348885 -0.3747158719355195 C 3.648216607025975 -0.45441516297060547 3.692303429370515 -0.5623923359923473 3.6915575450721474 -0.6747115267597263 C 3.6947442261439813 -0.7890686789323764 3.6509409056891817 -0.8997383349289239 3.5703526843606137 -0.9809371758836587 C 3.489764463032047 -1.0621360168383807 3.3794286017494954 -1.1067734602720907 3.2650506533869974 -1.1044500753106457 Z" fill="url(#gradient-f738292d-f190-438d-9e7a-b1ccbfed9248_2)" transform="matrix(1,0,0,1,0,0)" fill-rule="evenodd"></path></g></g></g><defs><clipPath id="SvgjsClipPath1001"><path d=" M 0 -4.144864669227841 h 4.5590778770399245 v 3.8948646692278417 h -4.5590778770399245 Z"></path></clipPath><clipPath id="SvgjsClipPath1000"><path d=" M 0 -4.144864669227841 L 4.5590778770399245 -4.144864669227841 L 4.5590778770399245 -0.24999999999999956 L 0 -0.24999999999999956 Z"></path></clipPath><linearGradient id="gradient-f738292d-f190-438d-9e7a-b1ccbfed9248_0" x1="0" x2="1" y1="0" y2="1"><stop stop-color="#d56a34" offset="0"></stop><stop stop-color="#512113" offset="1"></stop></linearGradient><linearGradient id="gradient-f738292d-f190-438d-9e7a-b1ccbfed9248_1" x1="0" x2="1" y1="0" y2="1"><stop stop-color="#843d1f" offset="0"></stop><stop stop-color="#662c18" offset="1"></stop></linearGradient><linearGradient id="gradient-f738292d-f190-438d-9e7a-b1ccbfed9248_2" x1="0" x2="1" y1="0" y2="1"><stop stop-color="#6b3019" offset="0"></stop><stop stop-color="#4d1f12" offset="1"></stop></linearGradient></defs></svg>